<?xml version="1.0" encoding="utf-8"?>
<!-- Generator: Adobe Illustrator 21.1.0, SVG Export Plug-In . SVG Version: 6.00 Build 0)  -->
<svg version="1.1" id="Capa_1" xmlns="http://www.w3.org/2000/svg" xmlns:xlink="http://www.w3.org/1999/xlink" x="0px" y="0px"
	 viewBox="0 0 19.3 19.3" style="enable-background:new 0 0 19.3 19.3;" xml:space="preserve">
<path class="icon-basket-svg" d="M19,3c-0.2-0.2-0.5-0.3-0.8-0.3H4.4L4.2,1.5c0-0.5-0.5-0.9-0.9-0.9H1c-0.6,0-1,0.4-1,1s0.4,1,1,1h1.4c0,0,1.8,10.7,1.9,11.2
	s0.2,0.9,1,0.9s11,0,11,0c0.6,0,1-0.4,1-1s-0.4-1-1-1H6.1l-0.2-1h11.3c0.5,0,0.9-0.4,1-0.9l1-7C19.3,3.5,19.2,3.2,19,3z M17.1,4.6
	l-0.3,2h-3.6v-2H17.1z M12.3,4.6v2h-3v-2H12.3z M12.3,7.6v2h-3v-2C9.3,7.6,12.3,7.6,12.3,7.6z M8.3,4.6v2h-3c-0.1,0-0.1,0-0.1,0
	l-0.3-2H8.3z M5.3,7.6h3v2H5.6L5.3,7.6z M13.3,9.6v-2h3.4l-0.3,2H13.3z"/>
<circle class="icon-basket-svg" cx="6.8" cy="17.1" r="1.5"/>
<circle class="icon-basket-svg" cx="15.8" cy="17.1" r="1.5"/>
</svg>
